<svg id="visual" viewBox="0 0 960 540" width="960" height="540" xmlns="http://www.w3.org/2000/svg" xmlns:xlink="http://www.w3.org/1999/xlink" version="1.1"><rect x="0" y="0" width="960" height="540" fill="#002233"></rect><path d="M0 474L22.8 471.7C45.7 469.3 91.3 464.7 137 457.2C182.7 449.7 228.3 439.3 274 437.2C319.7 435 365.3 441 411.2 450.7C457 460.3 503 473.7 548.8 480C594.7 486.3 640.3 485.7 686 479.7C731.7 473.7 777.3 462.3 823 454.3C868.7 446.3 914.3 441.7 937.2 439.3L960 437L960 541L937.2 541C914.3 541 868.7 541 823 541C777.3 541 731.7 541 686 541C640.3 541 594.7 541 548.8 541C503 541 457 541 411.2 541C365.3 541 319.7 541 274 541C228.3 541 182.7 541 137 541C91.3 541 45.7 541 22.8 541L0 541Z" fill="#0066FF" stroke-linecap="round" stroke-linejoin="miter"></path></svg>