<svg width="286" height="51" viewBox="0 0 286 51" fill="none" xmlns="http://www.w3.org/2000/svg">
<path d="M84.1616 21.675C83.5316 20.4617 82.6566 19.5517 81.5366 18.945C80.4166 18.315 79.1216 18 77.6516 18C76.0416 18 74.6066 18.3617 73.3466 19.085C72.0866 19.8083 71.095 20.835 70.3716 22.165C69.6716 23.495 69.3216 25.035 69.3216 26.785C69.3216 28.535 69.6716 30.0867 70.3716 31.44C71.095 32.77 72.0866 33.7967 73.3466 34.52C74.6066 35.2433 76.0416 35.605 77.6516 35.605C79.8216 35.605 81.5833 34.9983 82.9366 33.785C84.29 32.5717 85.1183 30.9267 85.4216 28.85H76.2866V25.665H89.6916V28.78C89.435 30.67 88.7583 32.4083 87.6616 33.995C86.5883 35.5817 85.1766 36.8533 83.4266 37.81C81.7 38.7433 79.775 39.21 77.6516 39.21C75.365 39.21 73.2766 38.685 71.3866 37.635C69.4966 36.5617 67.9916 35.08 66.8716 33.19C65.775 31.3 65.2266 29.165 65.2266 26.785C65.2266 24.405 65.775 22.27 66.8716 20.38C67.9916 18.49 69.4966 17.02 71.3866 15.97C73.3 14.8967 75.3883 14.36 77.6516 14.36C80.2416 14.36 82.54 15.0017 84.5466 16.285C86.5766 17.545 88.0466 19.3417 88.9566 21.675H84.1616ZM97.617 22.515C98.2003 21.535 98.9703 20.7767 99.927 20.24C100.907 19.68 102.062 19.4 103.392 19.4V23.53H102.377C100.814 23.53 99.6236 23.9267 98.807 24.72C98.0136 25.5133 97.617 26.89 97.617 28.85V39H93.627V19.715H97.617V22.515ZM115.425 39.315C113.605 39.315 111.96 38.9067 110.49 38.09C109.02 37.25 107.865 36.0833 107.025 34.59C106.185 33.0733 105.765 31.3233 105.765 29.34C105.765 27.38 106.196 25.6417 107.06 24.125C107.923 22.6083 109.101 21.4417 110.595 20.625C112.088 19.8083 113.756 19.4 115.6 19.4C117.443 19.4 119.111 19.8083 120.605 20.625C122.098 21.4417 123.276 22.6083 124.14 24.125C125.003 25.6417 125.435 27.38 125.435 29.34C125.435 31.3 124.991 33.0383 124.105 34.555C123.218 36.0717 122.005 37.25 120.465 38.09C118.948 38.9067 117.268 39.315 115.425 39.315ZM115.425 35.85C116.451 35.85 117.408 35.605 118.295 35.115C119.205 34.625 119.94 33.89 120.5 32.91C121.06 31.93 121.34 30.74 121.34 29.34C121.34 27.94 121.071 26.7617 120.535 25.805C119.998 24.825 119.286 24.09 118.4 23.6C117.513 23.11 116.556 22.865 115.53 22.865C114.503 22.865 113.546 23.11 112.66 23.6C111.796 24.09 111.108 24.825 110.595 25.805C110.081 26.7617 109.825 27.94 109.825 29.34C109.825 31.4167 110.35 33.0267 111.4 34.17C112.473 35.29 113.815 35.85 115.425 35.85ZM146.844 19.715V39H142.854V36.725C142.224 37.5183 141.396 38.1483 140.369 38.615C139.366 39.0583 138.292 39.28 137.149 39.28C135.632 39.28 134.267 38.965 133.054 38.335C131.864 37.705 130.919 36.7717 130.219 35.535C129.542 34.2983 129.204 32.805 129.204 31.055V19.715H133.159V30.46C133.159 32.1867 133.591 33.5167 134.454 34.45C135.317 35.36 136.496 35.815 137.989 35.815C139.482 35.815 140.661 35.36 141.524 34.45C142.411 33.5167 142.854 32.1867 142.854 30.46V19.715H146.844ZM156.098 22.55C156.775 21.6633 157.697 20.9167 158.863 20.31C160.03 19.7033 161.348 19.4 162.818 19.4C164.498 19.4 166.027 19.82 167.403 20.66C168.803 21.4767 169.9 22.6317 170.693 24.125C171.487 25.6183 171.883 27.3333 171.883 29.27C171.883 31.2067 171.487 32.945 170.693 34.485C169.9 36.0017 168.803 37.1917 167.403 38.055C166.027 38.895 164.498 39.315 162.818 39.315C161.348 39.315 160.042 39.0233 158.898 38.44C157.755 37.8333 156.822 37.0867 156.098 36.2V48.17H152.108V19.715H156.098V22.55ZM167.823 29.27C167.823 27.94 167.543 26.7967 166.983 25.84C166.447 24.86 165.723 24.125 164.813 23.635C163.927 23.1217 162.97 22.865 161.943 22.865C160.94 22.865 159.983 23.1217 159.073 23.635C158.187 24.1483 157.463 24.895 156.903 25.875C156.367 26.855 156.098 28.01 156.098 29.34C156.098 30.67 156.367 31.8367 156.903 32.84C157.463 33.82 158.187 34.5667 159.073 35.08C159.983 35.5933 160.94 35.85 161.943 35.85C162.97 35.85 163.927 35.5933 164.813 35.08C165.723 34.5433 166.447 33.7733 166.983 32.77C167.543 31.7667 167.823 30.6 167.823 29.27ZM195.814 39H191.824L179.819 20.835V39H175.829V14.64H179.819L191.824 32.77V14.64H195.814V39ZM209.419 39.315C207.599 39.315 205.954 38.9067 204.484 38.09C203.014 37.25 201.859 36.0833 201.019 34.59C200.179 33.0733 199.759 31.3233 199.759 29.34C199.759 27.38 200.19 25.6417 201.054 24.125C201.917 22.6083 203.095 21.4417 204.589 20.625C206.082 19.8083 207.75 19.4 209.594 19.4C211.437 19.4 213.105 19.8083 214.599 20.625C216.092 21.4417 217.27 22.6083 218.134 24.125C218.997 25.6417 219.429 27.38 219.429 29.34C219.429 31.3 218.985 33.0383 218.099 34.555C217.212 36.0717 215.999 37.25 214.459 38.09C212.942 38.9067 211.262 39.315 209.419 39.315ZM209.419 35.85C210.445 35.85 211.402 35.605 212.289 35.115C213.199 34.625 213.934 33.89 214.494 32.91C215.054 31.93 215.334 30.74 215.334 29.34C215.334 27.94 215.065 26.7617 214.529 25.805C213.992 24.825 213.28 24.09 212.394 23.6C211.507 23.11 210.55 22.865 209.524 22.865C208.497 22.865 207.54 23.11 206.654 23.6C205.79 24.09 205.102 24.825 204.589 25.805C204.075 26.7617 203.819 27.94 203.819 29.34C203.819 31.4167 204.344 33.0267 205.394 34.17C206.467 35.29 207.809 35.85 209.419 35.85ZM228.028 22.97V33.645C228.028 34.3683 228.191 34.8933 228.518 35.22C228.868 35.5233 229.451 35.675 230.268 35.675H232.718V39H229.568C227.771 39 226.395 38.58 225.438 37.74C224.481 36.9 224.003 35.535 224.003 33.645V22.97H221.728V19.715H224.003V14.92H228.028V19.715H232.718V22.97H228.028ZM254.071 28.885C254.071 29.6083 254.024 30.2617 253.931 30.845H239.196C239.312 32.385 239.884 33.6217 240.911 34.555C241.937 35.4883 243.197 35.955 244.691 35.955C246.837 35.955 248.354 35.0567 249.241 33.26H253.546C252.962 35.0333 251.901 36.4917 250.361 37.635C248.844 38.755 246.954 39.315 244.691 39.315C242.847 39.315 241.191 38.9067 239.721 38.09C238.274 37.25 237.131 36.0833 236.291 34.59C235.474 33.0733 235.066 31.3233 235.066 29.34C235.066 27.3567 235.462 25.6183 236.256 24.125C237.072 22.6083 238.204 21.4417 239.651 20.625C241.121 19.8083 242.801 19.4 244.691 19.4C246.511 19.4 248.132 19.7967 249.556 20.59C250.979 21.3833 252.087 22.5033 252.881 23.95C253.674 25.3733 254.071 27.0183 254.071 28.885ZM249.906 27.625C249.882 26.155 249.357 24.9767 248.331 24.09C247.304 23.2033 246.032 22.76 244.516 22.76C243.139 22.76 241.961 23.2033 240.981 24.09C240.001 24.9533 239.417 26.1317 239.231 27.625H249.906ZM264.997 39.315C263.48 39.315 262.115 39.0467 260.902 38.51C259.712 37.95 258.767 37.2033 258.067 36.27C257.367 35.3133 256.994 34.2517 256.947 33.085H261.077C261.147 33.9017 261.532 34.59 262.232 35.15C262.955 35.6867 263.854 35.955 264.927 35.955C266.047 35.955 266.91 35.745 267.517 35.325C268.147 34.8817 268.462 34.3217 268.462 33.645C268.462 32.9217 268.112 32.385 267.412 32.035C266.735 31.685 265.65 31.3 264.157 30.88C262.71 30.4833 261.532 30.0983 260.622 29.725C259.712 29.3517 258.919 28.78 258.242 28.01C257.589 27.24 257.262 26.225 257.262 24.965C257.262 23.9383 257.565 23.005 258.172 22.165C258.779 21.3017 259.642 20.625 260.762 20.135C261.905 19.645 263.212 19.4 264.682 19.4C266.875 19.4 268.637 19.96 269.967 21.08C271.32 22.1767 272.044 23.6817 272.137 25.595H268.147C268.077 24.7317 267.727 24.0433 267.097 23.53C266.467 23.0167 265.615 22.76 264.542 22.76C263.492 22.76 262.687 22.9583 262.127 23.355C261.567 23.7517 261.287 24.2767 261.287 24.93C261.287 25.4433 261.474 25.875 261.847 26.225C262.22 26.575 262.675 26.855 263.212 27.065C263.749 27.2517 264.542 27.4967 265.592 27.8C266.992 28.1733 268.135 28.5583 269.022 28.955C269.932 29.3283 270.714 29.8883 271.367 30.635C272.02 31.3817 272.359 32.3733 272.382 33.61C272.382 34.7067 272.079 35.6867 271.472 36.55C270.865 37.4133 270.002 38.09 268.882 38.58C267.785 39.07 266.49 39.315 264.997 39.315Z" fill="black"/>
<path d="M0 9C0 7.34315 1.34315 6 3 6H42C43.6569 6 45 7.34315 45 9V40.5983C45 42.2163 43.717 43.5428 42.0999 43.5967L3.09994 44.8967C1.40485 44.9532 0 43.5944 0 41.8983V9Z" fill="#FFEAA7"/>
<path d="M12.1879 19.2179C12.6838 18.169 13.7399 17.5 14.9001 17.5H50.6319C52.7372 17.5 54.1877 19.6119 53.4319 21.5769L45.7135 41.6448C45.281 42.7694 44.2176 43.5261 43.0134 43.5662L4.91307 44.8362C2.66938 44.911 1.14147 42.5853 2.10091 40.5558L12.1879 19.2179Z" fill="#FFBB64"/>
<path d="M22.1765 27.6624C22.7095 27.2337 23.3729 27 24.0568 27H57.1826C59.9921 27 61.2603 30.5159 59.0976 32.3093L45.7897 43.3451C45.2778 43.7696 44.6393 44.012 43.9746 44.0342L8.98655 45.2004C6.10597 45.2965 4.7605 41.6709 7.00633 39.8645L22.1765 27.6624Z" fill="#FF6868"/>
</svg>
