<svg id="visual" viewBox="0 0 270 435" width="270" height="435" xmlns="http://www.w3.org/2000/svg" xmlns:xlink="http://www.w3.org/1999/xlink" version="1.1"><rect x="0" y="0" width="270" height="435" fill="#001220"></rect><path d="M0 365L6.5 366C13 367 26 369 38.8 370.5C51.7 372 64.3 373 77.2 371.5C90 370 103 366 115.8 366.8C128.7 367.7 141.3 373.3 154.2 376C167 378.7 180 378.3 192.8 379C205.7 379.7 218.3 381.3 231.2 379.3C244 377.3 257 371.7 263.5 368.8L270 366L270 436L263.5 436C257 436 244 436 231.2 436C218.3 436 205.7 436 192.8 436C180 436 167 436 154.2 436C141.3 436 128.7 436 115.8 436C103 436 90 436 77.2 436C64.3 436 51.7 436 38.8 436C26 436 13 436 6.5 436L0 436Z" fill="#4facf7"></path><path d="M0 396L6.5 393.2C13 390.3 26 384.7 38.8 381.2C51.7 377.7 64.3 376.3 77.2 376.5C90 376.7 103 378.3 115.8 379.7C128.7 381 141.3 382 154.2 385.2C167 388.3 180 393.7 192.8 392.8C205.7 392 218.3 385 231.2 381.2C244 377.3 257 376.7 263.5 376.3L270 376L270 436L263.5 436C257 436 244 436 231.2 436C218.3 436 205.7 436 192.8 436C180 436 167 436 154.2 436C141.3 436 128.7 436 115.8 436C103 436 90 436 77.2 436C64.3 436 51.7 436 38.8 436C26 436 13 436 6.5 436L0 436Z" fill="#2b9dfc"></path><path d="M0 404L6.5 401.7C13 399.3 26 394.7 38.8 394.7C51.7 394.7 64.3 399.3 77.2 400.8C90 402.3 103 400.7 115.8 399.2C128.7 397.7 141.3 396.3 154.2 397.5C167 398.7 180 402.3 192.8 403.3C205.7 404.3 218.3 402.7 231.2 402.7C244 402.7 257 404.3 263.5 405.2L270 406L270 436L263.5 436C257 436 244 436 231.2 436C218.3 436 205.7 436 192.8 436C180 436 167 436 154.2 436C141.3 436 128.7 436 115.8 436C103 436 90 436 77.2 436C64.3 436 51.7 436 38.8 436C26 436 13 436 6.5 436L0 436Z" fill="#008cff"></path><path d="M0 400L6.5 400.3C13 400.7 26 401.3 38.8 404C51.7 406.7 64.3 411.3 77.2 413.8C90 416.3 103 416.7 115.8 415.2C128.7 413.7 141.3 410.3 154.2 410.5C167 410.7 180 414.3 192.8 413.5C205.7 412.7 218.3 407.3 231.2 405.2C244 403 257 404 263.5 404.5L270 405L270 436L263.5 436C257 436 244 436 231.2 436C218.3 436 205.7 436 192.8 436C180 436 167 436 154.2 436C141.3 436 128.7 436 115.8 436C103 436 90 436 77.2 436C64.3 436 51.7 436 38.8 436C26 436 13 436 6.5 436L0 436Z" fill="#007aff"></path><path d="M0 416L6.5 415.7C13 415.3 26 414.7 38.8 415.8C51.7 417 64.3 420 77.2 420.5C90 421 103 419 115.8 418.5C128.7 418 141.3 419 154.2 419.8C167 420.7 180 421.3 192.8 422.3C205.7 423.3 218.3 424.7 231.2 423.7C244 422.7 257 419.3 263.5 417.7L270 416L270 436L263.5 436C257 436 244 436 231.2 436C218.3 436 205.7 436 192.8 436C180 436 167 436 154.2 436C141.3 436 128.7 436 115.8 436C103 436 90 436 77.2 436C64.3 436 51.7 436 38.8 436C26 436 13 436 6.5 436L0 436Z" fill="#0066ff"></path></svg>