<svg id="visual" viewBox="0 0 900 600" width="900" height="600" xmlns="http://www.w3.org/2000/svg" xmlns:xlink="http://www.w3.org/1999/xlink" version="1.1"><rect x="0" y="0" width="900" height="600" fill="#FFEAA7"></rect><path d="M0 396L21.5 402.2C43 408.3 86 420.7 128.8 413.7C171.7 406.7 214.3 380.3 257.2 382.3C300 384.3 343 414.7 385.8 428.2C428.7 441.7 471.3 438.3 514.2 430.5C557 422.7 600 410.3 642.8 402.7C685.7 395 728.3 392 771.2 390.7C814 389.3 857 389.7 878.5 389.8L900 390L900 601L878.5 601C857 601 814 601 771.2 601C728.3 601 685.7 601 642.8 601C600 601 557 601 514.2 601C471.3 601 428.7 601 385.8 601C343 601 300 601 257.2 601C214.3 601 171.7 601 128.8 601C86 601 43 601 21.5 601L0 601Z" fill="#ffbb64"></path><path d="M0 433L21.5 428C43 423 86 413 128.8 419.8C171.7 426.7 214.3 450.3 257.2 449C300 447.7 343 421.3 385.8 407.8C428.7 394.3 471.3 393.7 514.2 406.3C557 419 600 445 642.8 457.8C685.7 470.7 728.3 470.3 771.2 470C814 469.7 857 469.3 878.5 469.2L900 469L900 601L878.5 601C857 601 814 601 771.2 601C728.3 601 685.7 601 642.8 601C600 601 557 601 514.2 601C471.3 601 428.7 601 385.8 601C343 601 300 601 257.2 601C214.3 601 171.7 601 128.8 601C86 601 43 601 21.5 601L0 601Z" fill="#ffa75e"></path><path d="M0 500L21.5 496C43 492 86 484 128.8 483.8C171.7 483.7 214.3 491.3 257.2 487.2C300 483 343 467 385.8 464.8C428.7 462.7 471.3 474.3 514.2 478.8C557 483.3 600 480.7 642.8 478C685.7 475.3 728.3 472.7 771.2 469.2C814 465.7 857 461.3 878.5 459.2L900 457L900 601L878.5 601C857 601 814 601 771.2 601C728.3 601 685.7 601 642.8 601C600 601 557 601 514.2 601C471.3 601 428.7 601 385.8 601C343 601 300 601 257.2 601C214.3 601 171.7 601 128.8 601C86 601 43 601 21.5 601L0 601Z" fill="#ff935d"></path><path d="M0 509L21.5 506.7C43 504.3 86 499.7 128.8 502.3C171.7 505 214.3 515 257.2 519.7C300 524.3 343 523.7 385.8 520.2C428.7 516.7 471.3 510.3 514.2 508.3C557 506.3 600 508.7 642.8 511C685.7 513.3 728.3 515.7 771.2 516.5C814 517.3 857 516.7 878.5 516.3L900 516L900 601L878.5 601C857 601 814 601 771.2 601C728.3 601 685.7 601 642.8 601C600 601 557 601 514.2 601C471.3 601 428.7 601 385.8 601C343 601 300 601 257.2 601C214.3 601 171.7 601 128.8 601C86 601 43 601 21.5 601L0 601Z" fill="#ff7e60"></path><path d="M0 563L21.5 559.3C43 555.7 86 548.3 128.8 545.8C171.7 543.3 214.3 545.7 257.2 546.3C300 547 343 546 385.8 549.7C428.7 553.3 471.3 561.7 514.2 565C557 568.3 600 566.7 642.8 562.8C685.7 559 728.3 553 771.2 552.7C814 552.3 857 557.7 878.5 560.3L900 563L900 601L878.5 601C857 601 814 601 771.2 601C728.3 601 685.7 601 642.8 601C600 601 557 601 514.2 601C471.3 601 428.7 601 385.8 601C343 601 300 601 257.2 601C214.3 601 171.7 601 128.8 601C86 601 43 601 21.5 601L0 601Z" fill="#ff6868"></path></svg>