<svg id="visual" viewBox="0 0 960 540" width="960" height="540" xmlns="http://www.w3.org/2000/svg" xmlns:xlink="http://www.w3.org/1999/xlink" version="1.1"><rect x="0" y="0" width="960" height="540" fill="#FFEAA7"></rect><path d="M0 356L22.8 361.5C45.7 367 91.3 378 137 371.7C182.7 365.3 228.3 341.7 274 343.5C319.7 345.3 365.3 372.7 411.2 384.8C457 397 503 394 548.8 387C594.7 380 640.3 369 686 362.2C731.7 355.3 777.3 352.7 823 351.5C868.7 350.3 914.3 350.7 937.2 350.8L960 351L960 541L937.2 541C914.3 541 868.7 541 823 541C777.3 541 731.7 541 686 541C640.3 541 594.7 541 548.8 541C503 541 457 541 411.2 541C365.3 541 319.7 541 274 541C228.3 541 182.7 541 137 541C91.3 541 45.7 541 22.8 541L0 541Z" fill="#ffbb64"></path><path d="M0 389L22.8 384.5C45.7 380 91.3 371 137 377.3C182.7 383.7 228.3 405.3 274 404.3C319.7 403.3 365.3 379.7 411.2 367.5C457 355.3 503 354.7 548.8 366C594.7 377.3 640.3 400.7 686 412.2C731.7 423.7 777.3 423.3 823 423C868.7 422.7 914.3 422.3 937.2 422.2L960 422L960 541L937.2 541C914.3 541 868.7 541 823 541C777.3 541 731.7 541 686 541C640.3 541 594.7 541 548.8 541C503 541 457 541 411.2 541C365.3 541 319.7 541 274 541C228.3 541 182.7 541 137 541C91.3 541 45.7 541 22.8 541L0 541Z" fill="#ffa75e"></path><path d="M0 450L22.8 446.3C45.7 442.7 91.3 435.3 137 435.2C182.7 435 228.3 442 274 438.3C319.7 434.7 365.3 420.3 411.2 418.3C457 416.3 503 426.7 548.8 430.7C594.7 434.7 640.3 432.3 686 430C731.7 427.7 777.3 425.3 823 422.2C868.7 419 914.3 415 937.2 413L960 411L960 541L937.2 541C914.3 541 868.7 541 823 541C777.3 541 731.7 541 686 541C640.3 541 594.7 541 548.8 541C503 541 457 541 411.2 541C365.3 541 319.7 541 274 541C228.3 541 182.7 541 137 541C91.3 541 45.7 541 22.8 541L0 541Z" fill="#ff935d"></path><path d="M0 458L22.8 455.8C45.7 453.7 91.3 449.3 137 451.8C182.7 454.3 228.3 463.7 274 467.8C319.7 472 365.3 471 411.2 467.8C457 464.7 503 459.3 548.8 457.7C594.7 456 640.3 458 686 460C731.7 462 777.3 464 823 464.7C868.7 465.3 914.3 464.7 937.2 464.3L960 464L960 541L937.2 541C914.3 541 868.7 541 823 541C777.3 541 731.7 541 686 541C640.3 541 594.7 541 548.8 541C503 541 457 541 411.2 541C365.3 541 319.7 541 274 541C228.3 541 182.7 541 137 541C91.3 541 45.7 541 22.8 541L0 541Z" fill="#ff7e60"></path><path d="M0 507L22.8 503.7C45.7 500.3 91.3 493.7 137 491.3C182.7 489 228.3 491 274 491.5C319.7 492 365.3 491 411.2 494.3C457 497.7 503 505.3 548.8 508.3C594.7 511.3 640.3 509.7 686 506.3C731.7 503 777.3 498 823 497.8C868.7 497.7 914.3 502.3 937.2 504.7L960 507L960 541L937.2 541C914.3 541 868.7 541 823 541C777.3 541 731.7 541 686 541C640.3 541 594.7 541 548.8 541C503 541 457 541 411.2 541C365.3 541 319.7 541 274 541C228.3 541 182.7 541 137 541C91.3 541 45.7 541 22.8 541L0 541Z" fill="#ff6868"></path></svg>