<svg id="visual" viewBox="0 0 960 540" width="960" height="540" xmlns="http://www.w3.org/2000/svg" xmlns:xlink="http://www.w3.org/1999/xlink" version="1.1"><rect x="0" y="0" width="960" height="540" fill="#001220"></rect><path d="M0 326L22.8 329.2C45.7 332.3 91.3 338.7 137 343.2C182.7 347.7 228.3 350.3 274 345.3C319.7 340.3 365.3 327.7 411.2 330.3C457 333 503 351 548.8 359.3C594.7 367.7 640.3 366.3 686 368.5C731.7 370.7 777.3 376.3 823 370.2C868.7 364 914.3 346 937.2 337L960 328L960 541L937.2 541C914.3 541 868.7 541 823 541C777.3 541 731.7 541 686 541C640.3 541 594.7 541 548.8 541C503 541 457 541 411.2 541C365.3 541 319.7 541 274 541C228.3 541 182.7 541 137 541C91.3 541 45.7 541 22.8 541L0 541Z" fill="#4facf7"></path><path d="M0 421L22.8 412.2C45.7 403.3 91.3 385.7 137 375C182.7 364.3 228.3 360.7 274 361.2C319.7 361.7 365.3 366.3 411.2 370.3C457 374.3 503 377.7 548.8 387.5C594.7 397.3 640.3 413.7 686 411C731.7 408.3 777.3 386.7 823 374.7C868.7 362.7 914.3 360.3 937.2 359.2L960 358L960 541L937.2 541C914.3 541 868.7 541 823 541C777.3 541 731.7 541 686 541C640.3 541 594.7 541 548.8 541C503 541 457 541 411.2 541C365.3 541 319.7 541 274 541C228.3 541 182.7 541 137 541C91.3 541 45.7 541 22.8 541L0 541Z" fill="#2b9dfc"></path><path d="M0 446L22.8 439C45.7 432 91.3 418 137 417.8C182.7 417.7 228.3 431.3 274 435.5C319.7 439.7 365.3 434.3 411.2 429.8C457 425.3 503 421.7 548.8 425.5C594.7 429.3 640.3 440.7 686 443.7C731.7 446.7 777.3 441.3 823 441.2C868.7 441 914.3 446 937.2 448.5L960 451L960 541L937.2 541C914.3 541 868.7 541 823 541C777.3 541 731.7 541 686 541C640.3 541 594.7 541 548.8 541C503 541 457 541 411.2 541C365.3 541 319.7 541 274 541C228.3 541 182.7 541 137 541C91.3 541 45.7 541 22.8 541L0 541Z" fill="#008cff"></path><path d="M0 434L22.8 434.8C45.7 435.7 91.3 437.3 137 445.7C182.7 454 228.3 469 274 476.8C319.7 484.7 365.3 485.3 411.2 480.3C457 475.3 503 464.7 548.8 465C594.7 465.3 640.3 476.7 686 474.3C731.7 472 777.3 456 823 449.7C868.7 443.3 914.3 446.7 937.2 448.3L960 450L960 541L937.2 541C914.3 541 868.7 541 823 541C777.3 541 731.7 541 686 541C640.3 541 594.7 541 548.8 541C503 541 457 541 411.2 541C365.3 541 319.7 541 274 541C228.3 541 182.7 541 137 541C91.3 541 45.7 541 22.8 541L0 541Z" fill="#007aff"></path><path d="M0 484L22.8 482.7C45.7 481.3 91.3 478.7 137 482C182.7 485.3 228.3 494.7 274 496.5C319.7 498.3 365.3 492.7 411.2 491.2C457 489.7 503 492.3 548.8 494.7C594.7 497 640.3 499 686 502C731.7 505 777.3 509 823 505.8C868.7 502.7 914.3 492.3 937.2 487.2L960 482L960 541L937.2 541C914.3 541 868.7 541 823 541C777.3 541 731.7 541 686 541C640.3 541 594.7 541 548.8 541C503 541 457 541 411.2 541C365.3 541 319.7 541 274 541C228.3 541 182.7 541 137 541C91.3 541 45.7 541 22.8 541L0 541Z" fill="#0066ff"></path></svg>